<svg width="480" height="409" viewBox="0 0 480 409" fill="none" xmlns="http://www.w3.org/2000/svg">
<path d="M377.057 1H104.184C93.1387 1 84.1844 9.9543 84.1844 21V51.3457C84.1844 62.3914 75.2301 71.3457 64.1844 71.3457H21C9.95431 71.3457 1 80.3 1 91.3457V306.349C1 317.394 9.95432 326.349 21 326.349H64.1844C75.2301 326.349 84.1844 335.303 84.1844 346.349V388C84.1844 399.046 93.1387 408 104.184 408H377.057C388.103 408 397.057 399.046 397.057 388V346.349C397.057 335.303 406.011 326.349 417.057 326.349H459C470.046 326.349 479 317.394 479 306.349V91.3457C479 80.3 470.046 71.3457 459 71.3457H417.057C406.011 71.3457 397.057 62.3914 397.057 51.3457V21C397.057 9.95431 388.103 1 377.057 1Z" stroke="black"/>
</svg>
