<svg width="437" height="368" viewBox="0 0 437 368" fill="none" xmlns="http://www.w3.org/2000/svg">
<path d="M341.429 1H96.7013C85.6556 1 76.7013 9.9543 76.7013 21V44.2593C76.7013 55.305 67.747 64.2593 56.7013 64.2593H21C9.9543 64.2593 1 73.2136 1 84.2593V273.574C1 284.62 9.95429 293.574 21 293.574H56.7013C67.747 293.574 76.7013 302.528 76.7013 313.574V347C76.7013 358.046 85.6556 367 96.7013 367H341.429C352.474 367 361.429 358.046 361.429 347V313.574C361.429 302.528 370.383 293.574 381.429 293.574H416C427.046 293.574 436 284.62 436 273.574V84.2593C436 73.2136 427.046 64.2593 416 64.2593H381.429C370.383 64.2593 361.429 55.305 361.429 44.2593V21C361.429 9.9543 352.474 1 341.429 1Z" stroke="black"/>
</svg>
